<svg width="16" height="16" viewBox="0 0 16 16" fill="none" xmlns="http://www.w3.org/2000/svg">
<path fill-rule="evenodd" clip-rule="evenodd" d="M8.57947 2.19892C8.84445 1.93376 9.27423 1.93368 9.5393 2.19875L12.8486 5.50807C13.1135 5.773 13.1137 6.20247 12.849 6.46758C12.6671 6.64971 12.3978 6.71329 12.1537 6.63176L12.0507 6.59735L8.51212 3.07744C8.49667 3.06207 8.48031 3.04818 8.4632 3.03577L8.41565 2.89299C8.33449 2.64927 8.3979 2.38062 8.57947 2.19892ZM7.9128 3.64123L5.56077 5.99289L9.05384 9.48596L9.83537 8.70443L12.5516 11.4212C12.7659 11.6355 13.1134 11.6355 13.3277 11.4212C13.542 11.2069 13.542 10.8595 13.3277 10.6452L10.6109 7.92837L11.4145 7.12573L7.93153 3.66112C7.92502 3.65465 7.91878 3.64801 7.9128 3.64123ZM4.90538 6.50177L8.54544 10.1418L8.57496 10.2599C8.63471 10.4989 8.56463 10.7517 8.39038 10.9258C8.11657 11.1995 7.67282 11.1994 7.39911 10.9257L4.12166 7.64822C3.84781 7.37436 3.84788 6.93033 4.12184 6.65657C4.2959 6.48263 4.5484 6.41268 4.78715 6.47227L4.90538 6.50177Z" fill="#606483"/>
<path d="M12.4136 9.35457L13.7919 10.6345C14.1585 10.9749 14.1653 11.553 13.8067 11.9019C13.4672 12.2322 12.9264 12.2321 12.587 11.9017L11.2393 10.5896C10.8937 10.2532 10.896 9.69722 11.2443 9.3636C11.5702 9.05148 12.0829 9.04752 12.4136 9.35457Z" fill="#606483"/>
<rect x="1.53394" y="12.7354" width="6.89603" height="1.26454" rx="0.632268" fill="#606483"/>
</svg>
