<svg width="16" height="16" viewBox="0 0 16 16" fill="none" xmlns="http://www.w3.org/2000/svg">
<path d="M10.294 4.26538H8.57598C8.41598 4.26538 8.26198 4.32371 8.14398 4.42871L6.17798 6.17871C6.17598 6.18066 6.17398 6.18455 6.17198 6.18649C5.83998 6.48983 5.84598 6.97399 6.12998 7.27538C6.38398 7.54566 6.91798 7.6176 7.25198 7.32788C7.25398 7.32594 7.25798 7.32594 7.25998 7.32399L8.85798 5.90066C8.98798 5.78594 9.19198 5.79371 9.30998 5.9201C9.42998 6.04649 9.41998 6.24288 9.28998 6.35955L8.76798 6.82427L11.68 9.1226C11.738 9.16927 11.79 9.21983 11.838 9.27233V5.50983L10.746 4.44816C10.628 4.33149 10.464 4.26538 10.294 4.26538ZM12.48 5.51371V9.86733C12.48 10.2115 12.766 10.4895 13.12 10.4895H14.4V5.51371H12.48ZM13.44 9.86733C13.264 9.86733 13.12 9.72733 13.12 9.55621C13.12 9.3851 13.264 9.2451 13.44 9.2451C13.616 9.2451 13.76 9.3851 13.76 9.55621C13.76 9.72733 13.616 9.86733 13.44 9.86733ZM1.59998 10.4876H2.87998C3.23398 10.4876 3.51998 10.2095 3.51998 9.86538V5.51371H1.59998V10.4876ZM2.55998 9.2451C2.73598 9.2451 2.87998 9.3851 2.87998 9.55621C2.87998 9.72733 2.73598 9.86733 2.55998 9.86733C2.38398 9.86733 2.23998 9.72733 2.23998 9.55621C2.23998 9.38316 2.38398 9.2451 2.55998 9.2451ZM11.278 9.60677L8.29198 7.2501L7.69198 7.78483C7.09798 8.31177 6.18797 8.26121 5.65798 7.69927C5.11998 7.1276 5.16198 6.24288 5.74598 5.72177L7.38198 4.26538H5.70598C5.53598 4.26538 5.37398 4.33149 5.25398 4.44816L4.15998 5.50983V9.86344H4.52598L6.33598 11.4559C6.88398 11.8895 7.68998 11.8079 8.13598 11.2751L8.13998 11.2712L8.49798 11.5726C8.81598 11.8254 9.28598 11.7768 9.54398 11.4676L10.172 10.717L10.28 10.8026C10.554 11.0184 10.958 10.9795 11.18 10.7112L11.37 10.4837C11.594 10.2154 11.552 9.82455 11.278 9.60677Z" fill="#606483"/>
</svg>
