<svg width="24" height="24" viewBox="0 0 24 24" fill="none" xmlns="http://www.w3.org/2000/svg">
<rect width="24" height="24" rx="4" fill="#D75DC3"/>
<path fill-rule="evenodd" clip-rule="evenodd" d="M12.5795 6.19892C12.8444 5.93376 13.2742 5.93368 13.5393 6.19875L16.8486 9.50807C17.1135 9.773 17.1137 10.2025 16.849 10.4676C16.6671 10.6497 16.3978 10.7133 16.1537 10.6318L16.0507 10.5973L12.5121 7.07744C12.4967 7.06207 12.4803 7.04818 12.4632 7.03577L12.4157 6.89299C12.3345 6.64927 12.3979 6.38062 12.5795 6.19892ZM11.9128 7.64123L9.56077 9.99289L13.0538 13.486L13.8354 12.7044L16.5516 15.4212C16.7659 15.6355 17.1134 15.6355 17.3277 15.4212C17.542 15.2069 17.542 14.8595 17.3277 14.6452L14.6109 11.9284L15.4145 11.1257L11.9315 7.66112C11.925 7.65465 11.9188 7.64801 11.9128 7.64123ZM8.90538 10.5018L12.5454 14.1418L12.575 14.2599C12.6347 14.4989 12.5646 14.7517 12.3904 14.9258C12.1166 15.1995 11.6728 15.1994 11.3991 14.9257L8.12166 11.6482C7.84781 11.3744 7.84788 10.9303 8.12184 10.6566C8.2959 10.4826 8.5484 10.4127 8.78715 10.4723L8.90538 10.5018Z" fill="white"/>
<path d="M16.4136 13.3546L17.7919 14.6345C18.1586 14.9749 18.1653 15.553 17.8067 15.9019C17.4672 16.2322 16.9265 16.2321 16.5871 15.9017L15.2393 14.5896C14.8937 14.2532 14.896 13.6972 15.2443 13.3636C15.5702 13.0515 16.0829 13.0475 16.4136 13.3546Z" fill="white"/>
<rect x="5.53394" y="16.7354" width="6.89603" height="1.26454" rx="0.632268" fill="white"/>
</svg>
