<svg width="24" height="24" viewBox="0 0 24 24" fill="none" xmlns="http://www.w3.org/2000/svg">
<rect width="24" height="24" rx="4" fill="#D75DC3"/>
<path d="M14.8675 7.33167H12.72C12.52 7.33167 12.3275 7.40458 12.18 7.53583L9.7225 9.72333C9.72 9.72576 9.7175 9.73062 9.715 9.73305C9.3 10.1122 9.3075 10.7174 9.6625 11.0942C9.98 11.432 10.6475 11.5219 11.065 11.1598C11.0675 11.1574 11.0725 11.1574 11.075 11.1549L13.0725 9.37576C13.235 9.23236 13.49 9.24208 13.6375 9.40007C13.7875 9.55805 13.775 9.80354 13.6125 9.94937L12.96 10.5303L16.6 13.4032C16.6725 13.4615 16.7375 13.5247 16.7975 13.5903V8.88722L15.4325 7.56014C15.285 7.4143 15.08 7.33167 14.8675 7.33167ZM17.6 8.89208V14.3341C17.6 14.7643 17.9575 15.1119 18.4 15.1119H20V8.89208H17.6ZM18.8 14.3341C18.58 14.3341 18.4 14.1591 18.4 13.9452C18.4 13.7313 18.58 13.5563 18.8 13.5563C19.02 13.5563 19.2 13.7313 19.2 13.9452C19.2 14.1591 19.02 14.3341 18.8 14.3341ZM4 15.1094H5.6C6.0425 15.1094 6.4 14.7619 6.4 14.3317V8.89208H4V15.1094ZM5.2 13.5563C5.42 13.5563 5.6 13.7313 5.6 13.9452C5.6 14.1591 5.42 14.3341 5.2 14.3341C4.98 14.3341 4.8 14.1591 4.8 13.9452C4.8 13.7289 4.98 13.5563 5.2 13.5563ZM16.0975 14.0084L12.365 11.0626L11.615 11.731C10.8725 12.3897 9.735 12.3265 9.0725 11.624C8.4 10.9094 8.4525 9.80354 9.1825 9.15215L11.2275 7.33167H9.1325C8.92 7.33167 8.7175 7.4143 8.5675 7.56014L7.2 8.88722V14.3292H7.6575L9.92 16.3199C10.605 16.8619 11.6125 16.7598 12.17 16.0938L12.175 16.089L12.6225 16.4657C13.02 16.7817 13.6075 16.7209 13.93 16.3344L14.715 15.3962L14.85 15.5032C15.1925 15.773 15.6975 15.7244 15.975 15.389L16.2125 15.1046C16.4925 14.7692 16.44 14.2806 16.0975 14.0084Z" fill="white"/>
</svg>
