<svg width="72" height="47" viewBox="0 0 72 47" fill="none" xmlns="http://www.w3.org/2000/svg">
<path d="M49.6365 31.2601L55.3145 42.9865C56.6511 45.7467 59.448 47.5 62.5148 47.5H64V52H5V47.5H6.03237C9.07471 47.5 11.8537 45.7743 13.2028 43.0475L19.0986 31.1305C25.3695 18.4552 43.4734 18.532 49.6365 31.2601Z" fill="white"/>
<path d="M49.6365 31.2601L55.3145 42.9865C56.6511 45.7467 59.448 47.5 62.5148 47.5H64V52H5V47.5H6.03237C9.07471 47.5 11.8537 45.7743 13.2028 43.0475L19.0986 31.1305C25.3695 18.4552 43.4734 18.532 49.6365 31.2601Z" fill="white"/>
<path d="M42.5 33.75H36.775L35 28.5L33.225 33.75H27.5L32.125 37L30.35 42.25L35 39L39.625 42.25L37.85 37L42.5 33.75Z" fill="#FFCE31"/>
<path d="M38.55 33.075L39.55 30.225L36.925 32.025L37.3 33.075H38.55ZM33.975 40.5L35 43.5L36.025 40.5L35 39.8L33.975 40.5ZM39.675 36.575L38.725 37.225L39.125 38.425H42.35L39.675 36.575ZM33.075 32.025L30.45 30.225L31.45 33.075H32.7L33.075 32.025ZM30.325 36.575L27.65 38.425H30.875L31.275 37.225L30.325 36.575Z" fill="#FFDF85"/>
</svg>
