<svg width="72" height="47" viewBox="0 0 72 47" fill="none" xmlns="http://www.w3.org/2000/svg">
<path d="M49.6365 31.2601L55.3145 42.9865C56.6511 45.7467 59.448 47.5 62.5148 47.5H64V52H5V47.5H6.03237C9.07471 47.5 11.8537 45.7743 13.2028 43.0475L19.0986 31.1305C25.3695 18.4552 43.4734 18.532 49.6365 31.2601Z" fill="white"/>
<path d="M49.6365 31.2601L55.3145 42.9865C56.6511 45.7467 59.448 47.5 62.5148 47.5H64V52H5V47.5H6.03237C9.07471 47.5 11.8537 45.7743 13.2028 43.0475L19.0986 31.1305C25.3695 18.4552 43.4734 18.532 49.6365 31.2601Z" fill="white"/>
<path d="M32.3847 37.5125C32.3847 37.182 32.1572 36.933 31.8557 36.933H27.9007C27.5985 36.933 27.3712 37.182 27.3712 37.5125C27.3712 37.8343 27.6015 38.0775 27.9077 38.0775H29.2815V42.5308C29.2815 42.8555 29.528 43.0803 29.8807 43.0803C30.2347 43.0803 30.4822 42.8555 30.4822 42.5308V38.0775H31.856C32.1522 38.0775 32.3847 37.8293 32.3847 37.5125ZM34.7625 36.825C33.0805 36.825 31.9925 38.0643 31.9925 39.9813C31.9925 41.9075 33.0795 43.1523 34.7625 43.1523C36.4362 43.1523 37.5175 41.9105 37.5175 39.9895C37.5175 38.0668 36.4372 36.825 34.7625 36.825ZM34.7625 42.0155C33.8087 42.0155 33.2165 41.2395 33.2165 39.9895C33.2165 38.7345 33.8087 37.954 34.7625 37.954C35.7075 37.954 36.2942 38.718 36.2942 39.9455C36.295 41.261 35.7362 42.0155 34.7625 42.0155ZM40.6 36.9325H39.006C38.3512 36.9325 38.0187 37.2793 38.0187 37.9638V42.5155C38.0187 42.8535 38.2575 43.08 38.6125 43.08C38.961 43.08 39.2052 42.851 39.2052 42.523V40.7465H40.5722C41.8605 40.7465 42.63 40.0155 42.63 38.7895C42.63 37.6275 41.871 36.9325 40.6 36.9325ZM41.4145 38.8043C41.4145 39.3615 41.1342 39.6325 40.5565 39.6325H39.205V38.0545H40.5565C41.1342 38.0548 41.4145 38.2998 41.4145 38.8043ZM36.4562 35.3855V32.809H37.178C37.6022 32.809 37.9512 32.4028 37.9927 31.882L34.7445 28.1458L31.5177 31.8805C31.5597 32.4013 31.9082 32.8088 32.333 32.8088H33.0547V35.3853L36.4562 35.3855Z" fill="#606483"/>
</svg>
